# Blender v2.78 (sub 0) OBJ File: 'Bowl.blend'
# www.blender.org
mtllib Bowl.mtl
o Bowl_Circle
v 0.000000 -0.001996 -0.463404
v -0.231702 -0.001996 -0.401319
v -0.401319 -0.001996 -0.231702
v -0.463404 -0.001996 0.000000
v -0.401319 -0.001996 0.231702
v -0.231702 -0.001996 0.401320
v -0.000000 -0.001996 0.463404
v 0.231702 -0.001996 0.401320
v 0.401319 -0.001996 0.231702
v 0.463404 -0.001996 0.000000
v 0.401320 -0.001996 -0.231702
v 0.231702 -0.001996 -0.401319
v 0.000000 0.021442 -0.463404
v -0.231702 0.021442 -0.401319
v -0.401319 0.021442 -0.231702
v -0.463404 0.021442 0.000000
v -0.401319 0.021442 0.231702
v -0.231702 0.021442 0.401320
v -0.000000 0.021442 0.463404
v 0.231702 0.021442 0.401320
v 0.401319 0.021442 0.231702
v 0.463404 0.021442 0.000000
v 0.401320 0.021442 -0.231702
v 0.231702 0.021442 -0.401319
v 0.000000 0.021442 -0.448077
v -0.224038 0.021442 -0.388046
v -0.388046 0.021442 -0.224038
v -0.448077 0.021442 0.000000
v -0.388046 0.021442 0.224039
v -0.224038 0.021442 0.388046
v -0.000000 0.021442 0.448077
v 0.224038 0.021442 0.388046
v 0.388046 0.021442 0.224039
v 0.448077 0.021442 0.000000
v 0.388046 0.021442 -0.224038
v 0.224039 0.021442 -0.388046
v 0.000000 0.225439 -0.379955
v -0.189978 0.225439 -0.329051
v -0.329051 0.225439 -0.189978
v -0.379955 0.225439 0.000000
v -0.329051 0.225439 0.189978
v -0.189978 0.225439 0.329051
v -0.000000 0.225439 0.379955
v 0.189978 0.225439 0.329051
v 0.329051 0.225439 0.189978
v 0.379955 0.225439 0.000000
v 0.329051 0.225439 -0.189977
v 0.189978 0.225439 -0.329051
v 0.000000 0.225439 -0.337090
v -0.168545 0.225439 -0.291929
v -0.291929 0.225439 -0.168545
v -0.337090 0.225439 0.000000
v -0.291929 0.225439 0.168545
v -0.168545 0.225439 0.291929
v -0.000000 0.225439 0.337090
v 0.168545 0.225439 0.291929
v 0.291929 0.225439 0.168545
v 0.337090 0.225439 0.000000
v 0.291929 0.225439 -0.168545
v 0.168545 0.225439 -0.291928
v 0.000000 0.020650 -0.282663
v -0.141332 0.020650 -0.244794
v -0.244794 0.020650 -0.141332
v -0.282663 0.020650 0.000000
v -0.244794 0.020650 0.141332
v -0.141332 0.020650 0.244794
v -0.000000 0.020650 0.282664
v 0.141332 0.020650 0.244794
v 0.244794 0.020650 0.141332
v 0.282663 0.020650 0.000000
v 0.244794 0.020650 -0.141332
v 0.141332 0.020650 -0.244794
v -0.000000 0.020650 0.000000
v -0.000000 -0.001996 0.000000
vt 0.3152 0.2210
vt 0.3120 0.2320
vt 0.2059 0.2321
vt 0.2032 0.2210
vt 0.0502 0.3740
vt 0.0612 0.3771
vt 0.0613 0.4832
vt 0.0502 0.4860
vt 0.4122 0.5829
vt 0.4042 0.5747
vt 0.4571 0.4828
vt 0.4682 0.4860
vt 0.4122 0.2770
vt 0.4039 0.2849
vt 0.1062 0.2770
vt 0.1141 0.2852
vt 0.3152 0.6389
vt 0.3124 0.6278
vt 0.1062 0.5829
vt 0.1145 0.5750
vt 0.2064 0.6279
vt 0.2032 0.6389
vt 0.4682 0.3740
vt 0.4570 0.3767
vt 0.1192 0.2902
vt 0.0681 0.3789
vt 0.3105 0.6210
vt 0.3992 0.5697
vt 0.1194 0.5699
vt 0.2081 0.6211
vt 0.4502 0.3786
vt 0.3989 0.2900
vt 0.2078 0.2389
vt 0.0681 0.4813
vt 0.4503 0.4810
vt 0.3102 0.2388
vt 0.5862 0.0765
vt 0.5862 0.1629
vt 0.5054 0.1629
vt 0.5054 0.0765
vt 0.1840 0.0765
vt 0.1840 0.1629
vt 0.1044 0.1629
vt 0.1044 0.0765
vt 0.3455 0.0765
vt 0.3455 0.1629
vt 0.2648 0.1629
vt 0.2648 0.0765
vt 0.9053 0.0765
vt 0.9053 0.1629
vt 0.8264 0.1629
vt 0.8264 0.0765
vt 0.6662 0.0765
vt 0.6662 0.1629
vt 0.4251 0.0765
vt 0.4251 0.1629
vt 0.9858 0.0765
vt 0.9858 0.1629
vt 0.7462 0.0765
vt 0.7462 0.1629
vt 0.0245 0.1629
vt 0.0245 0.0765
vt 0.8264 0.1789
vt 0.7462 0.1789
vt 0.5862 0.1789
vt 0.5054 0.1789
vt 0.1840 0.1789
vt 0.1044 0.1789
vt 0.3455 0.1789
vt 0.2648 0.1789
vt 0.9053 0.1789
vt 0.6662 0.1789
vt 0.4251 0.1789
vt 0.9858 0.1789
vt 0.0245 0.1789
vt 0.9107 0.2803
vt 0.8321 0.3531
vt 0.7830 0.3272
vt 0.8146 0.2248
vt 0.6076 0.2803
vt 0.6804 0.3588
vt 0.6545 0.4080
vt 0.5521 0.3764
vt 0.8146 0.6389
vt 0.7908 0.5344
vt 0.8378 0.5049
vt 0.9107 0.5834
vt 0.6076 0.5834
vt 0.6861 0.5105
vt 0.7353 0.5365
vt 0.7037 0.6389
vt 0.9662 0.3764
vt 0.8617 0.4002
vt 0.7037 0.2248
vt 0.7275 0.3293
vt 0.5521 0.4873
vt 0.6565 0.4635
vt 0.9662 0.4873
vt 0.8638 0.4557
vt 0.7591 0.4318
vt 0.3692 0.6324
vt 0.4571 0.5816
vt 0.5079 0.7711
vt 0.5587 0.5816
vt 0.6467 0.6324
vt 0.6975 0.7203
vt 0.6975 0.8219
vt 0.6467 0.9099
vt 0.5587 0.9606
vt 0.4571 0.9606
vt 0.3692 0.9099
vt 0.3184 0.8219
vt 0.3184 0.7203
vn 0.0000 -0.6532 0.7571
vn 0.0000 0.6532 0.7571
vn -0.3786 0.6532 0.6557
vn -0.3786 -0.6532 0.6557
vn -0.7571 -0.6532 0.0000
vn -0.7571 0.6532 0.0000
vn -0.6557 0.6532 -0.3786
vn -0.6557 -0.6532 -0.3786
vn 0.6557 -0.6532 -0.3786
vn 0.6557 0.6532 -0.3786
vn 0.7571 0.6532 0.0000
vn 0.7571 -0.6532 0.0000
vn 0.3786 -0.6532 0.6557
vn 0.3786 0.6532 0.6557
vn -0.6557 -0.6532 0.3786
vn -0.6557 0.6532 0.3786
vn 0.3786 -0.6532 -0.6557
vn 0.3786 0.6532 -0.6557
vn -0.3786 -0.6532 -0.6557
vn -0.3786 0.6532 -0.6557
vn 0.0000 0.6532 -0.7571
vn 0.0000 -0.6532 -0.7571
vn 0.6557 -0.6532 0.3786
vn 0.6557 0.6532 0.3786
vn -0.4443 0.8583 0.2565
vn -0.5130 0.8583 0.0000
vn 0.2565 0.8583 -0.4443
vn 0.4443 0.8583 -0.2565
vn -0.2565 0.8583 -0.4443
vn 0.0000 0.8583 -0.5130
vn 0.4443 0.8583 0.2565
vn 0.2565 0.8583 0.4443
vn -0.2565 0.8583 0.4443
vn -0.4443 0.8583 -0.2565
vn 0.5130 0.8583 0.0000
vn 0.0000 0.8583 0.5130
vn -0.5557 0.7670 0.3208
vn -0.6416 0.7670 0.0000
vn 0.3208 0.7670 -0.5557
vn 0.5557 0.7670 -0.3208
vn -0.3208 0.7670 -0.5557
vn 0.0000 0.7670 -0.6416
vn 0.5557 0.7670 0.3208
vn 0.3208 0.7670 0.5557
vn -0.3208 0.7670 0.5557
vn -0.5557 0.7670 -0.3208
vn 0.6416 0.7670 0.0000
vn 0.0000 0.7670 0.6416
vn -0.2688 0.8431 -0.4657
vn 0.0000 0.8431 -0.5377
vn 0.4657 0.8431 -0.2688
vn 0.5377 0.8431 0.0000
vn -0.2688 0.8431 0.4657
vn -0.4657 0.8431 0.2688
vn 0.2688 0.8431 0.4657
vn 0.0000 0.8431 0.5377
vn -0.4657 0.8431 -0.2688
vn 0.2688 0.8431 -0.4657
vn 0.4657 0.8431 0.2688
vn -0.5377 0.8431 0.0000
vn -0.3330 0.7460 -0.5767
vn 0.0000 0.7460 -0.6659
vn 0.5767 0.7460 -0.3330
vn 0.6659 0.7460 0.0000
vn -0.3330 0.7460 0.5767
vn -0.5767 0.7460 0.3330
vn 0.3330 0.7460 0.5767
vn 0.0000 0.7460 0.6659
vn -0.5767 0.7460 -0.3330
vn 0.3330 0.7460 -0.5767
vn 0.5767 0.7460 0.3330
vn -0.6659 0.7460 0.0000
vn 0.0000 1.0000 0.0000
vn 0.0000 -1.0000 0.0000
usemtl None
s 1
f 7/1/1 19/2/2 18/3/3 6/4/4
f 4/5/5 16/6/6 15/7/7 3/8/8
f 11/9/9 23/10/10 22/11/11 10/12/12
f 8/13/13 20/14/14 19/2/2 7/1/1
f 5/15/15 17/16/16 16/6/6 4/5/5
f 12/17/17 24/18/18 23/10/10 11/9/9
f 2/19/19 14/20/20 13/21/21 1/22/22
f 9/23/23 21/24/24 20/14/14 8/13/13
f 6/4/4 18/3/3 17/16/16 5/15/15
f 1/22/22 13/21/21 24/18/18 12/17/17
f 3/8/8 15/7/7 14/20/20 2/19/19
f 10/12/12 22/11/11 21/24/24 9/23/23
f 17/16/16 29/25/25 28/26/26 16/6/6
f 24/18/18 36/27/27 35/28/28 23/10/10
f 14/20/20 26/29/29 25/30/30 13/21/21
f 21/24/24 33/31/31 32/32/32 20/14/14
f 18/3/3 30/33/33 29/25/25 17/16/16
f 13/21/21 25/30/30 36/27/27 24/18/18
f 15/7/7 27/34/34 26/29/29 14/20/20
f 22/11/11 34/35/35 33/31/31 21/24/24
f 19/2/2 31/36/36 30/33/33 18/3/3
f 16/6/6 28/26/26 27/34/34 15/7/7
f 23/10/10 35/28/28 34/35/35 22/11/11
f 20/14/14 32/32/32 31/36/36 19/2/2
f 29/37/25 41/38/37 40/39/38 28/40/26
f 36/41/27 48/42/39 47/43/40 35/44/28
f 26/45/29 38/46/41 37/47/42 25/48/30
f 33/49/31 45/50/43 44/51/44 32/52/32
f 30/53/33 42/54/45 41/38/37 29/37/25
f 25/48/30 37/47/42 48/42/39 36/41/27
f 27/55/34 39/56/46 38/46/41 26/45/29
f 34/57/35 46/58/47 45/50/43 33/49/31
f 31/59/36 43/60/48 42/54/45 30/53/33
f 28/40/26 40/39/38 39/56/46 27/55/34
f 35/44/28 47/43/40 46/61/47 34/62/35
f 32/52/32 44/51/44 43/60/48 31/59/36
f 44/51/44 56/63/49 55/64/50 43/60/48
f 41/38/37 53/65/51 52/66/52 40/39/38
f 48/42/39 60/67/53 59/68/54 47/43/40
f 38/46/41 50/69/55 49/70/56 37/47/42
f 45/50/43 57/71/57 56/63/49 44/51/44
f 42/54/45 54/72/58 53/65/51 41/38/37
f 37/47/42 49/70/56 60/67/53 48/42/39
f 39/56/46 51/73/59 50/69/55 38/46/41
f 46/58/47 58/74/60 57/71/57 45/50/43
f 43/60/48 55/64/50 54/72/58 42/54/45
f 40/39/38 52/66/52 51/73/59 39/56/46
f 47/43/40 59/68/54 58/75/60 46/61/47
f 56/76/49 68/77/61 67/78/62 55/79/50
f 53/80/51 65/81/63 64/82/64 52/83/52
f 60/84/53 72/85/65 71/86/66 59/87/54
f 50/88/55 62/89/67 61/90/68 49/91/56
f 57/92/57 69/93/69 68/77/61 56/76/49
f 54/94/58 66/95/70 65/81/63 53/80/51
f 49/91/56 61/90/68 72/85/65 60/84/53
f 51/96/59 63/97/71 62/89/67 50/88/55
f 58/98/60 70/99/72 69/93/69 57/92/57
f 55/79/50 67/78/62 66/95/70 54/94/58
f 52/83/52 64/82/64 63/97/71 51/96/59
f 59/87/54 71/86/66 70/99/72 58/98/60
f 62/89/67 63/97/71 73/100/73
f 63/97/71 64/82/64 73/100/73
f 64/82/64 65/81/63 73/100/73
f 65/81/63 66/95/70 73/100/73
f 66/95/70 67/78/62 73/100/73
f 67/78/62 68/77/61 73/100/73
f 68/77/61 69/93/69 73/100/73
f 69/93/69 70/99/72 73/100/73
f 70/99/72 71/86/66 73/100/73
f 71/86/66 72/85/65 73/100/73
f 72/85/65 61/90/68 73/100/73
f 61/90/68 62/89/67 73/100/73
f 2/101/19 1/102/22 74/103/74
f 1/102/22 12/104/17 74/103/74
f 12/104/17 11/105/9 74/103/74
f 11/105/9 10/106/12 74/103/74
f 10/106/12 9/107/23 74/103/74
f 9/107/23 8/108/13 74/103/74
f 8/108/13 7/109/1 74/103/74
f 7/109/1 6/110/4 74/103/74
f 6/110/4 5/111/15 74/103/74
f 5/111/15 4/112/5 74/103/74
f 4/112/5 3/113/8 74/103/74
f 3/113/8 2/101/19 74/103/74
