# Blender v2.78 (sub 0) OBJ File: 'Dogbed.blend'
# www.blender.org
mtllib Dogbed.mtl
o Dogbed_Circle.001
v 0.867349 0.376262 -0.169306
v 0.752665 0.376262 0.108373
v 0.468118 0.376262 0.284529
v 0.783644 0.368767 -0.185047
v 0.468118 0.002547 0.293824
v 0.752665 0.002547 0.116980
v 0.867349 0.002547 -0.151159
v 0.752665 0.002547 -0.508896
v 0.468118 0.002547 -0.843892
v 0.752665 0.376262 -0.548012
v 0.468118 0.376262 -0.902487
v 0.752665 0.144096 -0.537616
v 0.468118 0.144096 -0.886622
v 0.752665 0.144096 0.110640
v 0.867349 0.144096 -0.164347
v 0.468118 0.156529 0.286970
v 0.693250 0.368767 0.046210
v 0.468967 0.368767 0.185627
v 0.693250 0.368767 -0.494767
v 0.468968 0.368767 -0.785878
v 0.468967 0.156529 0.185627
v 0.783644 0.171342 -0.185047
v 0.693250 0.171342 0.046210
v 0.693250 0.171342 -0.494767
v 0.468968 0.171342 -0.785878
v 0.468967 0.199436 -0.300125
v 0.468118 0.002547 -0.275034
v 0.000000 0.002547 -0.934051
v -0.867349 0.376262 -0.169306
v -0.752665 0.376262 0.108373
v -0.468118 0.376262 0.284529
v -0.783644 0.368767 -0.185047
v 0.000000 0.376262 -0.986272
v 0.000000 0.002547 0.349494
v -0.468118 0.002547 0.293824
v -0.752665 0.002547 0.116980
v -0.867349 0.002547 -0.151159
v -0.752665 0.002547 -0.508896
v -0.468118 0.002547 -0.843892
v -0.752665 0.376262 -0.548012
v -0.468118 0.376262 -0.902487
v -0.752665 0.144096 -0.537616
v -0.468118 0.144096 -0.886622
v -0.752665 0.144096 0.110640
v -0.867349 0.144096 -0.164347
v 0.000000 0.156529 0.341547
v -0.468118 0.156529 0.286970
v 0.000000 0.144096 -0.972316
v -0.693250 0.368767 0.046210
v -0.468967 0.368767 0.185627
v 0.000000 0.368767 -0.868477
v -0.693250 0.368767 -0.494767
v -0.468968 0.368767 -0.785878
v 0.000000 0.156529 0.219085
v -0.468967 0.156529 0.185627
v -0.783644 0.171342 -0.185047
v -0.693250 0.171342 0.046210
v 0.000000 0.171342 -0.868477
v -0.693250 0.171342 -0.494767
v -0.468968 0.171342 -0.785878
v 0.000000 0.121384 -0.324696
v -0.468967 0.199436 -0.300125
v 0.000000 0.002547 -0.292279
v -0.468118 0.002547 -0.275034
vt 0.5925 0.0861
vt 0.5925 0.0275
vt 0.6805 0.0275
vt 0.6805 0.0861
vt 0.7568 0.0861
vt 0.7568 0.0275
vt 0.8152 0.0275
vt 0.8152 0.0861
vt 0.6154 0.6002
vt 0.6389 0.6584
vt 0.6214 0.6616
vt 0.6029 0.6132
vt 0.5000 0.0861
vt 0.5000 0.0275
vt 0.8813 0.0275
vt 0.8813 0.0861
vt 0.8152 0.1054
vt 0.8813 0.1054
vt 0.6805 0.1054
vt 0.7568 0.1054
vt 0.5000 0.1054
vt 0.5925 0.1054
vt 0.9716 0.0861
vt 0.9716 0.1054
vt 0.6147 0.7373
vt 0.5551 0.8112
vt 0.5553 0.7868
vt 0.6022 0.7261
vt 0.5564 0.5629
vt 0.5563 0.5836
vt 0.9028 0.0275
vt 0.9028 0.0861
vt 0.4574 0.8286
vt 0.4574 0.8040
vt 0.7509 0.2316
vt 0.8491 0.2391
vt 0.8501 0.2603
vt 0.7519 0.2571
vt 0.9594 0.9561
vt 0.8872 0.9561
vt 0.8872 0.9001
vt 0.9594 0.9001
vt 0.8194 0.9561
vt 0.7312 0.9561
vt 0.7312 0.9001
vt 0.8194 0.9001
vt 0.6308 0.9561
vt 0.6308 0.9001
vt 0.5007 0.9561
vt 0.5007 0.9001
vt 0.0790 0.3320
vt 0.1622 0.3581
vt 0.1618 0.4769
vt 0.1027 0.4067
vt 0.2599 0.3621
vt 0.2595 0.4960
vt 0.8582 0.4635
vt 0.8537 0.3618
vt 0.9191 0.3353
vt 0.9028 0.4008
vt 0.8984 0.2876
vt 0.7609 0.4847
vt 0.7564 0.3708
vt 0.1627 0.2394
vt 0.2604 0.2281
vt 0.1031 0.2761
vt 0.4075 0.0861
vt 0.3195 0.0861
vt 0.3195 0.0275
vt 0.4075 0.0275
vt 0.2432 0.0861
vt 0.1848 0.0861
vt 0.1848 0.0275
vt 0.2432 0.0275
vt 0.2993 0.6002
vt 0.3118 0.6132
vt 0.2933 0.6616
vt 0.2758 0.6584
vt 0.1187 0.0861
vt 0.1187 0.0275
vt 0.1848 0.1054
vt 0.1187 0.1054
vt 0.3195 0.1054
vt 0.2432 0.1054
vt 0.4075 0.1054
vt 0.0284 0.1054
vt 0.0284 0.0861
vt 0.3000 0.7373
vt 0.3125 0.7261
vt 0.3595 0.7868
vt 0.3596 0.8112
vt 0.3583 0.5629
vt 0.3584 0.5836
vt 0.0972 0.0861
vt 0.0972 0.0275
vt 0.6542 0.2680
vt 0.6535 0.2469
vt 0.0420 0.9561
vt 0.0420 0.9001
vt 0.1141 0.9001
vt 0.1141 0.9561
vt 0.1820 0.9561
vt 0.1820 0.9001
vt 0.2701 0.9001
vt 0.2701 0.9561
vt 0.3705 0.9001
vt 0.3705 0.9561
vt 0.4411 0.3332
vt 0.4169 0.4078
vt 0.3573 0.4775
vt 0.3577 0.3588
vt 0.6622 0.4713
vt 0.6127 0.4123
vt 0.5913 0.3482
vt 0.6586 0.3695
vt 0.6082 0.2990
vt 0.3581 0.2401
vt 0.4174 0.2772
vn 0.4948 -0.1407 -0.8575
vn 0.3910 0.6381 -0.6633
vn 0.6380 0.6902 -0.3413
vn 0.8750 -0.0663 -0.4795
vn 0.9991 -0.0066 0.0404
vn 0.7453 0.6659 0.0313
vn 0.5643 0.6737 0.4772
vn 0.7625 0.0210 0.6466
vn -0.6597 0.7510 -0.0266
vn -0.5082 0.7513 -0.4209
vn 0.0000 -0.1686 -0.9857
vn 0.0000 0.6672 -0.7449
vn -0.4089 0.5765 0.7074
vn 0.0625 0.3992 0.9147
vn 0.5856 -0.6324 0.5071
vn 0.2510 -0.6449 0.7218
vn 0.6333 -0.7014 -0.3269
vn 0.7671 -0.6393 0.0524
vn 0.0000 -0.7647 -0.6444
vn 0.3716 -0.7208 -0.5851
vn 0.0000 0.6992 0.7149
vn 0.0000 -0.6638 0.7479
vn -0.3420 0.7659 0.5444
vn -0.6253 0.7135 0.3161
vn -0.7029 0.5799 -0.4119
vn -0.4982 0.8314 -0.2459
vn 0.0000 0.7241 0.6897
vn 0.0000 1.0000 0.0036
vn -0.5915 0.6541 -0.4714
vn -0.6378 0.6990 0.3232
vn -0.7540 0.6565 -0.0201
vn -0.4206 0.6257 0.6569
vn 0.0000 0.6618 0.7497
vn 0.0000 -1.0000 0.0000
vn -0.0104 0.9999 0.0056
vn 0.0000 0.9999 0.0146
vn -0.4948 -0.1407 -0.8575
vn -0.8750 -0.0663 -0.4795
vn -0.6380 0.6902 -0.3413
vn -0.3910 0.6381 -0.6633
vn -0.9991 -0.0066 0.0404
vn -0.7625 0.0210 0.6466
vn -0.5643 0.6737 0.4772
vn -0.7453 0.6659 0.0313
vn 0.5082 0.7513 -0.4209
vn 0.6597 0.7510 -0.0266
vn -0.0625 0.3992 0.9147
vn 0.4089 0.5765 0.7074
vn -0.5856 -0.6324 0.5071
vn -0.2510 -0.6449 0.7218
vn -0.6333 -0.7014 -0.3269
vn -0.7671 -0.6393 0.0524
vn -0.3716 -0.7208 -0.5851
vn 0.6253 0.7135 0.3161
vn 0.3420 0.7659 0.5444
vn 0.7029 0.5799 -0.4119
vn 0.4982 0.8314 -0.2459
vn 0.5915 0.6541 -0.4714
vn 0.7540 0.6565 -0.0201
vn 0.6378 0.6990 0.3232
vn 0.4206 0.6257 0.6569
vn 0.0104 0.9999 0.0056
usemtl None
s 1
f 13/1/1 11/2/2 10/3/3 12/4/4
f 15/5/5 1/6/6 2/7/7 14/8/8
f 2/9/7 1/10/6 4/11/9 17/12/10
f 48/13/11 33/14/12 11/2/2 13/1/1
f 12/4/4 10/3/3 1/6/6 15/5/5
f 14/8/8 2/7/7 3/15/13 16/16/14
f 6/17/15 14/8/8 16/16/14 5/18/16
f 8/19/17 12/4/4 15/5/5 7/20/18
f 28/21/19 48/13/11 13/1/1 9/22/20
f 5/18/16 16/16/14 46/23/21 34/24/22
f 7/20/18 15/5/5 14/8/8 6/17/15
f 9/22/20 13/1/1 12/4/4 8/19/17
f 10/25/3 11/26/2 20/27/23 19/28/24
f 3/29/13 2/9/7 17/12/10 18/30/25
f 16/16/14 3/15/13 18/31/25 21/32/26
f 1/10/6 10/25/3 19/28/24 4/11/9
f 11/26/2 33/33/12 51/34/27 20/27/23
f 46/35/21 16/36/14 21/37/26 54/38/28
f 18/39/25 17/40/10 23/41/29 21/42/26
f 4/43/9 19/44/24 24/45/30 22/46/31
f 17/40/10 4/43/9 22/46/31 23/41/29
f 19/44/24 20/47/23 25/48/32 24/45/30
f 20/47/23 51/49/27 58/50/33 25/48/32
f 7/51/18 27/52/34 9/53/20 8/54/17
f 27/52/34 63/55/34 28/56/19 9/53/20
f 25/57/32 26/58/35 22/59/31 24/60/30
f 26/58/35 21/37/26 23/61/29 22/59/31
f 26/58/35 25/57/32 58/62/33 61/63/36
f 21/37/26 26/58/35 61/63/36 54/38/28
f 5/64/16 34/65/22 63/55/34 27/52/34
f 6/66/15 5/64/16 27/52/34 7/51/18
f 43/67/37 42/68/38 40/69/39 41/70/40
f 45/71/41 44/72/42 30/73/43 29/74/44
f 30/75/43 49/76/45 32/77/46 29/78/44
f 48/13/11 43/67/37 41/70/40 33/14/12
f 42/68/38 45/71/41 29/74/44 40/69/39
f 44/72/42 47/79/47 31/80/48 30/73/43
f 36/81/49 35/82/50 47/79/47 44/72/42
f 38/83/51 37/84/52 45/71/41 42/68/38
f 28/21/19 39/85/53 43/67/37 48/13/11
f 35/82/50 34/86/22 46/87/21 47/79/47
f 37/84/52 36/81/49 44/72/42 45/71/41
f 39/85/53 38/83/51 42/68/38 43/67/37
f 40/88/39 52/89/54 53/90/55 41/91/40
f 31/92/48 50/93/56 49/76/45 30/75/43
f 47/79/47 55/94/57 50/95/56 31/80/48
f 29/78/44 32/77/46 52/89/54 40/88/39
f 41/91/40 53/90/55 51/34/27 33/33/12
f 46/35/21 54/38/28 55/96/57 47/97/47
f 50/98/56 55/99/57 57/100/58 49/101/45
f 32/102/46 56/103/59 59/104/60 52/105/54
f 49/101/45 57/100/58 56/103/59 32/102/46
f 52/105/54 59/104/60 60/106/61 53/107/55
f 53/107/55 60/106/61 58/50/33 51/49/27
f 37/108/52 38/109/51 39/110/53 64/111/34
f 64/111/34 39/110/53 28/56/19 63/55/34
f 60/112/61 59/113/60 56/114/59 62/115/62
f 62/115/62 56/114/59 57/116/58 55/96/57
f 62/115/62 61/63/36 58/62/33 60/112/61
f 55/96/57 54/38/28 61/63/36 62/115/62
f 35/117/50 64/111/34 63/55/34 34/65/22
f 36/118/49 37/108/52 64/111/34 35/117/50
