# Blender v2.78 (sub 0) OBJ File: 'Tennisball.blend'
# www.blender.org
mtllib Tennisball.mtl
o tennisball_Sphere.001
v 0.000000 0.086104 -0.023072
v 0.000000 0.063033 -0.063033
v 0.000000 0.023072 -0.086105
v 0.000000 -0.077199 -0.044571
v 0.011536 0.019981 0.086104
v 0.022285 0.038600 0.077199
v 0.031516 0.054588 0.063033
v 0.038600 0.066856 0.044571
v 0.043052 0.074569 0.023071
v 0.044571 0.077199 -0.000000
v 0.043052 0.074569 -0.023072
v 0.038600 0.066856 -0.044571
v 0.031516 0.054588 -0.063033
v 0.022285 0.038600 -0.077199
v 0.011536 0.019981 -0.086105
v -0.000000 0.089142 -0.000000
v 0.019981 0.011536 0.086104
v 0.038600 0.022285 0.077199
v 0.054588 0.031516 0.063032
v 0.066856 0.038600 0.044571
v 0.074569 0.043052 0.023071
v 0.077199 0.044571 -0.000000
v 0.074569 0.043052 -0.023072
v 0.066856 0.038600 -0.044571
v 0.054588 0.031516 -0.063033
v 0.038600 0.022285 -0.077199
v 0.019981 0.011536 -0.086105
v 0.023072 0.000000 0.086104
v 0.044571 0.000000 0.077199
v 0.063033 0.000000 0.063032
v 0.077199 0.000000 0.044571
v 0.086104 0.000000 0.023071
v 0.089142 0.000000 -0.000000
v 0.086104 0.000000 -0.023072
v 0.077199 0.000000 -0.044571
v 0.063033 0.000000 -0.063033
v 0.044571 0.000000 -0.077199
v 0.023072 0.000000 -0.086105
v 0.019981 -0.011536 0.086104
v 0.038600 -0.022285 0.077199
v 0.054588 -0.031516 0.063032
v 0.066856 -0.038600 0.044571
v 0.074569 -0.043052 0.023071
v 0.077199 -0.044571 -0.000000
v 0.074569 -0.043052 -0.023072
v 0.066856 -0.038600 -0.044571
v 0.054588 -0.031516 -0.063033
v 0.038600 -0.022285 -0.077199
v 0.019981 -0.011536 -0.086105
v 0.011536 -0.019981 0.086104
v 0.022285 -0.038599 0.077199
v 0.031516 -0.054588 0.063032
v 0.038600 -0.066856 0.044571
v 0.043052 -0.074569 0.023071
v 0.044571 -0.077199 -0.000000
v 0.043052 -0.074569 -0.023072
v 0.038600 -0.066856 -0.044571
v 0.031516 -0.054588 -0.063033
v 0.022285 -0.038600 -0.077199
v 0.011536 -0.019981 -0.086105
v 0.000000 -0.044571 0.077199
v 0.000000 -0.063033 0.063032
v 0.000000 -0.077199 0.044571
v 0.000000 -0.086104 0.023071
v -0.011536 0.086104 0.019980
v -0.022285 0.077199 0.038599
v -0.031516 0.063033 0.054588
v -0.038600 0.044571 0.066856
v -0.043052 0.023072 0.074568
v -0.044571 0.000000 0.077199
v -0.043052 -0.023072 0.074568
v -0.038600 -0.044571 0.066856
v -0.031516 -0.063033 0.054588
v -0.022285 -0.077199 0.038599
v -0.011536 -0.086104 0.019980
v -0.019981 0.086104 0.011535
v -0.038599 0.077199 0.022285
v -0.054588 0.063033 0.031516
v -0.066856 0.044571 0.038599
v -0.074569 0.023072 0.043052
v -0.077199 0.000000 0.044571
v -0.074569 -0.023072 0.043052
v -0.066856 -0.044571 0.038599
v -0.054588 -0.063033 0.031516
v -0.038600 -0.077199 0.022285
v -0.019981 -0.086104 0.011535
v -0.023072 0.086104 -0.000000
v -0.044571 0.077199 -0.000000
v -0.063033 0.063033 -0.000000
v -0.077199 0.044571 -0.000000
v -0.086104 0.023072 -0.000000
v -0.089142 0.000000 -0.000000
v -0.086104 -0.023072 -0.000000
v -0.077199 -0.044571 -0.000000
v -0.063033 -0.063033 -0.000000
v -0.044571 -0.077199 -0.000000
v -0.023072 -0.086104 -0.000000
v -0.019981 0.086104 -0.011536
v -0.038599 0.077199 -0.022286
v -0.054588 0.063033 -0.031517
v -0.066856 0.044571 -0.038600
v -0.074569 0.023072 -0.043053
v -0.077199 0.000000 -0.044571
v -0.074569 -0.023072 -0.043053
v -0.066856 -0.044571 -0.038600
v -0.054588 -0.063033 -0.031517
v -0.038600 -0.077199 -0.022286
v -0.019981 -0.086104 -0.011536
v -0.011536 0.086104 -0.019981
v -0.022285 0.077199 -0.038600
v -0.031516 0.063033 -0.054588
v -0.038600 0.044571 -0.066857
v -0.043052 0.023072 -0.074569
v -0.044571 0.000000 -0.077199
v -0.043052 -0.023072 -0.074569
v -0.038600 -0.044571 -0.066857
v -0.031516 -0.063033 -0.054588
v -0.022285 -0.077199 -0.038600
v -0.011536 -0.086104 -0.019981
v 0.000000 0.044571 0.077199
v 0.000000 0.077199 0.044571
v 0.000000 0.000000 -0.089142
v 0.000000 -0.023072 -0.086105
v 0.000000 -0.044571 -0.077199
v 0.000000 -0.063033 -0.063033
v 0.000000 -0.086104 -0.023072
v 0.000000 -0.089142 -0.000000
v 0.000000 -0.023072 0.086104
v -0.000000 0.000000 0.089142
v 0.000000 0.023072 0.086104
v 0.000000 0.077199 -0.044571
v 0.000000 0.063033 0.063032
v 0.000000 0.044571 -0.077199
v 0.000000 0.086104 0.023071
vt 0.1562 0.6750
vt 0.1117 0.6729
vt 0.1149 0.5955
vt 0.1570 0.5964
vt 0.5062 0.1985
vt 0.4631 0.2000
vt 0.4679 0.1780
vt 0.4178 0.6848
vt 0.4641 0.6871
vt 0.4699 0.7094
vt 0.4291 0.7316
vt 0.3285 0.6619
vt 0.2814 0.6682
vt 0.2764 0.5941
vt 0.3233 0.5909
vt 0.1982 0.6749
vt 0.1963 0.5965
vt 0.6722 0.6682
vt 0.7201 0.6730
vt 0.7304 0.7148
vt 0.6882 0.7367
vt 0.7166 0.2418
vt 0.6722 0.2484
vt 0.6820 0.1801
vt 0.7246 0.2004
vt 0.2392 0.6721
vt 0.2352 0.5958
vt 0.0616 0.6683
vt 0.0664 0.5945
vt 0.4184 0.2025
vt 0.4279 0.1566
vt 0.5080 0.6876
vt 0.7281 0.1277
vt 0.7532 0.1678
vt 0.1954 0.5218
vt 0.2336 0.5218
vt 0.0683 0.5215
vt 0.1161 0.5213
vt 0.4598 0.1221
vt 0.4834 0.1612
vt 0.4862 0.7258
vt 0.2743 0.5212
vt 0.1572 0.5216
vt 0.4627 0.7657
vt 0.3214 0.5194
vt 0.7611 0.7459
vt 0.7366 0.7861
vt 0.5087 0.7315
vt 0.5089 0.7776
vt 0.2738 0.4484
vt 0.3211 0.4475
vt 0.1571 0.4481
vt 0.1951 0.4483
vt 0.8036 0.7569
vt 0.8032 0.8039
vt 0.7944 0.1069
vt 0.7952 0.1543
vt 0.2331 0.4485
vt 0.0691 0.4491
vt 0.1164 0.4482
vt 0.5052 0.1088
vt 0.5055 0.1547
vt 0.5512 0.1206
vt 0.5278 0.1604
vt 0.5307 0.7249
vt 0.2330 0.3750
vt 0.2741 0.3753
vt 0.1158 0.3754
vt 0.1566 0.3748
vt 0.5545 0.7643
vt 0.3218 0.3751
vt 0.1947 0.3748
vt 0.8457 0.7443
vt 0.8699 0.7850
vt 0.8624 0.1229
vt 0.8384 0.1643
vt 0.0688 0.3772
vt 0.8749 0.7118
vt 0.9175 0.7332
vt 0.9130 0.1723
vt 0.8704 0.1952
vt 0.1939 0.3001
vt 0.2332 0.3002
vt 0.0669 0.3057
vt 0.1138 0.3025
vt 0.5848 0.1545
vt 0.5442 0.1766
vt 0.5462 0.7082
vt 0.2753 0.3011
vt 0.1549 0.3008
vt 0.5867 0.7294
vt 0.3238 0.3021
vt 0.5499 0.1989
vt 0.5515 0.6861
vt 0.5961 0.6830
vt 0.2785 0.2237
vt 0.3285 0.2283
vt 0.1510 0.2245
vt 0.1920 0.2217
vt 0.8844 0.6699
vt 0.9292 0.6642
vt 0.9303 0.2422
vt 0.8816 0.2381
vt 0.2340 0.2216
vt 0.0616 0.2347
vt 0.1088 0.2284
vt 0.5961 0.2011
vt 0.6760 0.5968
vt 0.7229 0.5983
vt 0.1153 0.1843
vt 0.1547 0.2032
vt 0.1619 0.6965
vt 0.5492 0.6042
vt 0.5936 0.6034
vt 0.4197 0.6034
vt 0.4649 0.6039
vt 0.1225 0.7182
vt 0.8795 0.5980
vt 0.9250 0.5959
vt 0.5072 0.6043
vt 0.0778 0.7416
vt 0.0713 0.1634
vt 0.1558 0.7512
vt 0.1303 0.7945
vt 0.1181 0.1078
vt 0.1449 0.1493
vt 0.5070 0.5233
vt 0.5487 0.5237
vt 0.6780 0.5261
vt 0.7247 0.5266
vt 0.1691 0.1865
vt 0.1781 0.7121
vt 0.5932 0.5234
vt 0.4204 0.5228
vt 0.4652 0.5229
vt 0.8787 0.5269
vt 0.9244 0.5263
vt 0.4208 0.4424
vt 0.4653 0.4425
vt 0.1902 0.1796
vt 0.1999 0.7170
vt 0.2013 0.7618
vt 0.8780 0.4562
vt 0.9245 0.4561
vt 0.5070 0.4429
vt 0.2023 0.8117
vt 0.1879 0.0849
vt 0.1889 0.1348
vt 0.5487 0.4433
vt 0.6786 0.4556
vt 0.7247 0.4555
vt 0.5933 0.4433
vt 0.6790 0.3856
vt 0.7250 0.3847
vt 0.2344 0.1454
vt 0.2121 0.1845
vt 0.2211 0.7101
vt 0.5489 0.3629
vt 0.5936 0.3630
vt 0.4209 0.3623
vt 0.4654 0.3621
vt 0.2453 0.7473
vt 0.8790 0.3852
vt 0.9256 0.3855
vt 0.5071 0.3624
vt 0.2721 0.7888
vt 0.2598 0.1021
vt 0.4650 0.2815
vt 0.5070 0.2815
vt 0.2749 0.7123
vt 0.3189 0.7332
vt 0.3124 0.1550
vt 0.2676 0.1784
vt 0.5491 0.2819
vt 0.6773 0.3163
vt 0.7225 0.3135
vt 0.2283 0.2001
vt 0.2355 0.6934
vt 0.5943 0.2824
vt 0.4205 0.2823
vt 0.8795 0.3133
vt 0.9269 0.3142
vn 0.0882 0.9601 0.2655
vn 0.0453 0.8630 0.5031
vn 0.4356 0.7545 0.4909
vn 0.4836 0.8377 0.2536
vn -0.0856 0.0000 -0.9963
vn -0.0882 0.2655 -0.9601
vn 0.1394 0.2415 -0.9603
vn -0.0453 0.5031 0.8630
vn -0.0882 0.2655 0.9601
vn 0.1394 0.2415 0.9603
vn 0.2579 0.4468 0.8566
vn 0.0000 0.7071 -0.7071
vn 0.0453 0.8630 -0.5031
vn 0.4356 0.7545 -0.4909
vn 0.3588 0.6214 -0.6964
vn 0.0856 0.9963 0.0000
vn 0.5000 0.8660 0.0000
vn 0.0000 0.7071 0.7071
vn 0.3588 0.6214 0.6964
vn -0.0453 0.5031 -0.8630
vn 0.2579 0.4468 -0.8566
vn 0.0882 0.9601 -0.2655
vn 0.4836 0.8377 -0.2536
vn -0.0856 0.0000 0.9963
vn 0.6214 0.3588 -0.6964
vn 0.4468 0.2579 -0.8566
vn 0.8660 0.5000 0.0000
vn 0.8377 0.4836 -0.2536
vn 0.6214 0.3588 0.6964
vn 0.7545 0.4356 0.4909
vn 0.2415 0.1394 -0.9603
vn 0.2415 0.1394 0.9603
vn 0.7545 0.4356 -0.4909
vn 0.8377 0.4836 0.2536
vn 0.4468 0.2579 0.8566
vn 0.2788 0.0000 0.9603
vn 0.5159 0.0000 0.8566
vn 0.8712 0.0000 -0.4909
vn 0.7176 0.0000 -0.6964
vn 0.9673 0.0000 0.2536
vn 1.0000 0.0000 0.0000
vn 0.7176 0.0000 0.6964
vn 0.5159 0.0000 -0.8566
vn 0.9673 0.0000 -0.2536
vn 0.8712 0.0000 0.4909
vn 0.2788 0.0000 -0.9603
vn 0.4468 -0.2579 -0.8566
vn 0.2415 -0.1394 -0.9603
vn 0.2415 -0.1394 0.9603
vn 0.8377 -0.4836 -0.2536
vn 0.7545 -0.4356 -0.4909
vn 0.7545 -0.4356 0.4909
vn 0.8377 -0.4836 0.2536
vn 0.4468 -0.2579 0.8566
vn 0.6214 -0.3588 -0.6964
vn 0.8660 -0.5000 0.0000
vn 0.6214 -0.3588 0.6964
vn 0.2579 -0.4468 0.8566
vn 0.3588 -0.6214 0.6964
vn 0.3588 -0.6214 -0.6964
vn 0.2579 -0.4468 -0.8566
vn 0.5000 -0.8660 0.0000
vn 0.4836 -0.8377 -0.2536
vn 0.4356 -0.7545 0.4909
vn 0.1394 -0.2415 -0.9603
vn 0.1394 -0.2415 0.9603
vn 0.4356 -0.7545 -0.4909
vn 0.4836 -0.8377 0.2536
vn -0.0882 -0.2655 -0.9601
vn -0.0882 -0.2655 0.9601
vn -0.0453 -0.5031 0.8630
vn 0.0453 -0.8630 -0.5031
vn 0.0000 -0.7071 -0.7071
vn 0.0882 -0.9601 0.2655
vn 0.0856 -0.9963 0.0000
vn 0.0000 -0.7071 0.7071
vn -0.0453 -0.5031 -0.8630
vn 0.0882 -0.9601 -0.2655
vn 0.0453 -0.8630 0.5031
vn -0.3588 0.6964 0.6214
vn -0.4356 0.4909 0.7545
vn -0.2579 -0.8566 0.4468
vn -0.1394 -0.9603 0.2415
vn -0.1394 0.9603 0.2415
vn -0.4836 -0.2536 0.8377
vn -0.4356 -0.4909 0.7545
vn -0.4836 0.2536 0.8377
vn -0.2579 0.8566 0.4468
vn -0.3588 -0.6964 0.6214
vn -0.5000 0.0000 0.8660
vn -0.4468 0.8566 0.2579
vn -0.6214 0.6964 0.3588
vn -0.6214 -0.6964 0.3588
vn -0.4468 -0.8566 0.2579
vn -0.8660 0.0000 0.5000
vn -0.8377 -0.2536 0.4836
vn -0.7545 0.4909 0.4356
vn -0.2415 -0.9603 0.1394
vn -0.2415 0.9603 0.1394
vn -0.7545 -0.4909 0.4356
vn -0.8377 0.2536 0.4836
vn -0.8712 0.4909 0.0000
vn -0.9673 0.2536 0.0000
vn -0.2788 -0.9603 0.0000
vn -0.2788 0.9603 0.0000
vn -0.5159 0.8566 0.0000
vn -0.8712 -0.4909 0.0000
vn -0.7176 -0.6964 0.0000
vn -1.0000 0.0000 0.0000
vn -0.7176 0.6964 0.0000
vn -0.5159 -0.8566 0.0000
vn -0.9673 -0.2536 0.0000
vn -0.6214 0.6964 -0.3588
vn -0.7545 0.4909 -0.4356
vn -0.4468 -0.8566 -0.2579
vn -0.2415 -0.9603 -0.1394
vn -0.2415 0.9603 -0.1394
vn -0.8377 -0.2536 -0.4836
vn -0.7545 -0.4909 -0.4356
vn -0.8377 0.2536 -0.4836
vn -0.4468 0.8566 -0.2579
vn -0.6214 -0.6964 -0.3588
vn -0.8660 0.0000 -0.5000
vn -0.4836 0.2536 -0.8377
vn -0.5000 0.0000 -0.8660
vn -0.2579 0.8566 -0.4468
vn -0.3588 0.6964 -0.6214
vn -0.3588 -0.6964 -0.6214
vn -0.2579 -0.8566 -0.4468
vn -0.4836 -0.2536 -0.8377
vn -0.4356 0.4909 -0.7545
vn -0.1394 -0.9603 -0.2415
vn -0.1394 0.9603 -0.2415
vn -0.4356 -0.4909 -0.7545
usemtl None
s 1
f 134/1/1 121/2/2 8/3/3 9/4/4
f 122/5/5 3/6/6 15/7/7
f 120/8/8 130/9/9 5/10/10 6/11/11
f 2/12/12 131/13/13 12/14/14 13/15/15
f 16/16/16 134/1/1 9/4/4 10/17/17
f 132/18/18 120/19/8 6/20/11 7/21/19
f 133/22/20 2/23/12 13/24/15 14/25/21
f 1/26/22 16/16/16 10/17/17 11/27/23
f 121/2/2 132/28/18 7/29/19 8/3/3
f 3/6/6 133/30/20 14/31/21 15/7/7
f 130/9/9 129/32/24 5/10/10
f 131/13/13 1/26/22 11/27/23 12/14/14
f 14/25/21 13/24/15 25/33/25 26/34/26
f 11/27/23 10/17/17 22/35/27 23/36/28
f 8/3/3 7/29/19 19/37/29 20/38/30
f 15/7/7 14/31/21 26/39/26 27/40/31
f 5/10/10 129/32/24 17/41/32
f 12/14/14 11/27/23 23/36/28 24/42/33
f 9/4/4 8/3/3 20/38/30 21/43/34
f 122/5/5 15/7/7 27/40/31
f 6/11/11 5/10/10 17/41/32 18/44/35
f 13/15/15 12/14/14 24/42/33 25/45/25
f 10/17/17 9/4/4 21/43/34 22/35/27
f 7/21/19 6/20/11 18/46/35 19/47/29
f 18/44/35 17/41/32 28/48/36 29/49/37
f 25/45/25 24/42/33 35/50/38 36/51/39
f 22/35/27 21/43/34 32/52/40 33/53/41
f 19/47/29 18/46/35 29/54/37 30/55/42
f 26/34/26 25/33/25 36/56/39 37/57/43
f 23/36/28 22/35/27 33/53/41 34/58/44
f 20/38/30 19/37/29 30/59/42 31/60/45
f 27/40/31 26/39/26 37/61/43 38/62/46
f 17/41/32 129/32/24 28/48/36
f 24/42/33 23/36/28 34/58/44 35/50/38
f 21/43/34 20/38/30 31/60/45 32/52/40
f 122/5/5 27/40/31 38/62/46
f 38/62/46 37/61/43 48/63/47 49/64/48
f 28/48/36 129/32/24 39/65/49
f 35/50/38 34/58/44 45/66/50 46/67/51
f 32/52/40 31/60/45 42/68/52 43/69/53
f 122/5/5 38/62/46 49/64/48
f 29/49/37 28/48/36 39/65/49 40/70/54
f 36/51/39 35/50/38 46/67/51 47/71/55
f 33/53/41 32/52/40 43/69/53 44/72/56
f 30/55/42 29/54/37 40/73/54 41/74/57
f 37/57/43 36/56/39 47/75/55 48/76/47
f 34/58/44 33/53/41 44/72/56 45/66/50
f 31/60/45 30/59/42 41/77/57 42/68/52
f 41/74/57 40/73/54 51/78/58 52/79/59
f 48/76/47 47/75/55 58/80/60 59/81/61
f 45/66/50 44/72/56 55/82/62 56/83/63
f 42/68/52 41/77/57 52/84/59 53/85/64
f 49/64/48 48/63/47 59/86/61 60/87/65
f 39/65/49 129/32/24 50/88/66
f 46/67/51 45/66/50 56/83/63 57/89/67
f 43/69/53 42/68/52 53/85/64 54/90/68
f 122/5/5 49/64/48 60/87/65
f 40/70/54 39/65/49 50/88/66 51/91/58
f 47/71/55 46/67/51 57/89/67 58/92/60
f 44/72/56 43/69/53 54/90/68 55/82/62
f 122/5/5 60/87/65 123/93/69
f 51/91/58 50/88/66 128/94/70 61/95/71
f 58/92/60 57/89/67 4/96/72 125/97/73
f 55/82/62 54/90/68 64/98/74 127/99/75
f 52/79/59 51/78/58 61/100/71 62/101/76
f 59/81/61 58/80/60 125/102/73 124/103/77
f 56/83/63 55/82/62 127/99/75 126/104/78
f 53/85/64 52/84/59 62/105/76 63/106/79
f 60/87/65 59/86/61 124/107/77 123/93/69
f 50/88/66 129/32/24 128/94/70
f 57/89/67 56/83/63 126/104/78 4/96/72
f 54/90/68 53/85/64 63/106/79 64/98/74
f 120/19/8 132/18/18 67/108/80 68/109/81
f 64/98/74 63/106/79 74/110/82 75/111/83
f 134/1/1 16/16/16 65/112/84
f 61/95/71 128/94/70 71/113/85 72/114/86
f 130/9/9 120/8/8 68/115/81 69/116/87
f 127/99/75 64/98/74 75/111/83
f 121/2/2 134/1/1 65/112/84 66/117/88
f 62/101/76 61/100/71 72/118/86 73/119/89
f 129/32/24 130/9/9 69/116/87 70/120/90
f 132/28/18 121/2/2 66/117/88 67/121/80
f 63/106/79 62/105/76 73/122/89 74/110/82
f 128/94/70 129/32/24 70/120/90 71/113/85
f 67/121/80 66/117/88 77/123/91 78/124/92
f 74/110/82 73/122/89 84/125/93 85/126/94
f 71/113/85 70/120/90 81/127/95 82/128/96
f 68/109/81 67/108/80 78/129/92 79/130/97
f 75/111/83 74/110/82 85/126/94 86/131/98
f 65/112/84 16/16/16 76/132/99
f 72/114/86 71/113/85 82/128/96 83/133/100
f 69/116/87 68/115/81 79/134/97 80/135/101
f 127/99/75 75/111/83 86/131/98
f 66/117/88 65/112/84 76/132/99 77/123/91
f 73/119/89 72/118/86 83/136/100 84/137/93
f 70/120/90 69/116/87 80/135/101 81/127/95
f 80/135/101 79/134/97 90/138/102 91/139/103
f 127/99/75 86/131/98 97/140/104
f 77/123/91 76/132/99 87/141/105 88/142/106
f 84/137/93 83/136/100 94/143/107 95/144/108
f 81/127/95 80/135/101 91/139/103 92/145/109
f 78/124/92 77/123/91 88/142/106 89/146/110
f 85/126/94 84/125/93 95/147/108 96/148/111
f 82/128/96 81/127/95 92/145/109 93/149/112
f 79/130/97 78/129/92 89/150/110 90/151/102
f 86/131/98 85/126/94 96/148/111 97/140/104
f 76/132/99 16/16/16 87/141/105
f 83/133/100 82/128/96 93/149/112 94/152/107
f 90/151/102 89/150/110 100/153/113 101/154/114
f 97/140/104 96/148/111 107/155/115 108/156/116
f 87/141/105 16/16/16 98/157/117
f 94/152/107 93/149/112 104/158/118 105/159/119
f 91/139/103 90/138/102 101/160/114 102/161/120
f 127/99/75 97/140/104 108/156/116
f 88/142/106 87/141/105 98/157/117 99/162/121
f 95/144/108 94/143/107 105/163/119 106/164/122
f 92/145/109 91/139/103 102/161/120 103/165/123
f 89/146/110 88/142/106 99/162/121 100/166/113
f 96/148/111 95/147/108 106/167/122 107/155/115
f 93/149/112 92/145/109 103/165/123 104/158/118
f 103/165/123 102/161/120 113/168/124 114/169/125
f 100/166/113 99/162/121 110/170/126 111/171/127
f 107/155/115 106/167/122 117/172/128 118/173/129
f 104/158/118 103/165/123 114/169/125 115/174/130
f 101/154/114 100/153/113 111/175/127 112/176/131
f 108/156/116 107/155/115 118/173/129 119/177/132
f 98/157/117 16/16/16 109/178/133
f 105/159/119 104/158/118 115/174/130 116/179/134
f 102/161/120 101/160/114 112/180/131 113/168/124
f 127/99/75 108/156/116 119/177/132
f 99/162/121 98/157/117 109/178/133 110/170/126
f 106/164/122 105/163/119 116/181/134 117/182/128
f 113/168/124 112/180/131 133/30/20 3/6/6
f 127/99/75 119/177/132 126/104/78
f 110/170/126 109/178/133 1/26/22 131/13/13
f 117/182/128 116/181/134 124/103/77 125/102/73
f 114/169/125 113/168/124 3/6/6 122/5/5
f 111/171/127 110/170/126 131/13/13 2/12/12
f 118/173/129 117/172/128 125/97/73 4/96/72
f 115/174/130 114/169/125 122/5/5 123/93/69
f 112/176/131 111/175/127 2/23/12 133/22/20
f 119/177/132 118/173/129 4/96/72 126/104/78
f 109/178/133 16/16/16 1/26/22
f 116/179/134 115/174/130 123/93/69 124/107/77
