<svg width="36" height="36" viewBox="0 0 36 36" fill="none" xmlns="http://www.w3.org/2000/svg">
<path d="M30.3 5.20001C33.7667 8.66668 35.5 12.85 35.5 17.75C35.5 22.65 33.7667 26.8333 30.3 30.3C26.8333 33.7667 22.65 35.5 17.75 35.5C12.85 35.5 8.66666 33.7667 5.2 30.3H5.14999C1.71666 26.8333 0 22.65 0 17.75C0 12.85 1.71666 8.66668 5.14999 5.20001L5.2 5.14999C8.66666 1.71666 12.85 0 17.75 0C22.65 0 26.8333 1.71666 30.3 5.14999V5.20001ZM28.9 6.60001C25.8333 3.53334 22.1167 2 17.75 2C13.4167 2 9.70001 3.53334 6.60001 6.60001C3.53334 9.70001 2 13.4167 2 17.75C2 22.1167 3.53334 25.8333 6.60001 28.9C9.66667 31.9667 13.3833 33.5 17.75 33.5C22.0833 33.5 25.7833 31.9667 28.85 28.9L28.9 28.85C31.9667 25.7833 33.5 22.0833 33.5 17.75C33.5 13.3833 31.9667 9.66667 28.9 6.60001Z" fill="#999999"/>
<path fill-rule="evenodd" clip-rule="evenodd" d="M19 13.5H17V17.5H2V18.5C2.16687 22.5438 3.69507 26.0104 6.58466 28.9C9.65131 31.9667 13.368 33.5 17.7347 33.5C22.068 33.5 25.768 31.9667 28.8347 28.9L28.8846 28.85C31.7729 25.9618 33.3019 22.5118 33.47 18.5V17.5H19V13.5Z" fill="#EEEEEE"/>
<path d="M28.9 6.60001C31.9667 9.66667 33.5 13.3833 33.5 17.75C33.5 22.0833 31.9667 25.7833 28.9 28.85L28.85 28.9C25.7833 31.9667 22.0833 33.5 17.75 33.5C13.3833 33.5 9.66667 31.9667 6.60001 28.9C3.53334 25.8333 2 22.1167 2 17.75C2 13.4167 3.53334 9.70001 6.60001 6.60001C9.70001 3.53334 13.4167 2 17.75 2C22.1167 2 25.8333 3.53334 28.9 6.60001ZM27.45 8C24.7833 5.33333 21.55 4 17.75 4C13.95 4 10.7 5.33333 8 8C5.33333 10.7 4 13.95 4 17.75C4 21.55 5.33333 24.7833 8 27.45C10.7 30.15 13.95 31.5 17.75 31.5C21.55 31.5 24.7833 30.15 27.45 27.45C30.15 24.7833 31.5 21.55 31.5 17.75C31.5 13.95 30.15 10.7 27.45 8Z" fill="white"/>
</svg>
