<svg width="28" height="28" viewBox="0 0 28 28" fill="none" xmlns="http://www.w3.org/2000/svg">
<path d="M23.45 4C26.15 6.7 27.5 9.95 27.5 13.75C27.5 17.55 26.15 20.7834 23.45 23.45C20.7833 26.15 17.55 27.5 13.75 27.5C9.95 27.5 6.7 26.15 4 23.45C1.33333 20.7833 -3.06854e-06 17.55 -2.40413e-06 13.75C-1.73971e-06 9.95 1.33333 6.7 4 4C6.7 1.33333 9.95 1.73971e-06 13.75 2.40413e-06C17.55 3.06854e-06 20.7833 1.33334 23.45 4Z" fill="url(#paint0_linear_72_40)"/>
<circle cx="20" cy="7" r="3" fill="#FFCC00"/>
<path fill-rule="evenodd" clip-rule="evenodd" d="M7.5 17.5C5.84314 17.5 4.5 18.8431 4.5 20.5C4.5 22.1568 5.84314 23.5 7.5 23.5C8.2088 23.5 8.86023 23.2542 9.3736 22.8431C9.10162 22.9446 8.80731 23 8.5 23C7.11926 23 6 21.8807 6 20.5C6 19.1193 7.11926 18 8.5 18C8.80731 18 9.10168 18.0555 9.37366 18.1569C8.86029 17.7458 8.20886 17.5 7.5 17.5Z" fill="#999999"/>
<defs>
<linearGradient id="paint0_linear_72_40" x1="13.75" y1="2.40413e-06" x2="13.75" y2="27.5" gradientUnits="userSpaceOnUse">
<stop offset="0.5" stop-color="#1EA7E1"/>
<stop offset="0.5" stop-color="#07384C"/>
</linearGradient>
</defs>
</svg>
